<svg width="84" height="29" viewBox="0 0 84 29" fill="none" xmlns="http://www.w3.org/2000/svg">
<path d="M0.850471 23.1981C0.283994 21.8695 0 20.303 0 18.4971C0 16.6912 0.296079 15.0288 0.889746 13.6602C1.48341 12.2938 2.21681 11.2107 3.09523 10.4108C3.89358 9.68802 4.81581 9.15931 5.86115 8.82396C6.90498 8.4886 7.91708 8.32168 8.89822 8.32168C9.7502 8.32168 10.6067 8.47576 11.4708 8.78619C12.3348 9.09511 13.0766 9.58606 13.6951 10.2553C13.7994 10.3595 13.9142 10.4108 14.0449 10.4108C14.1755 10.4108 14.2828 10.3655 14.3742 10.2756C14.464 10.1858 14.5094 10.0755 14.5094 9.94634V2.5625H19.7315V28.0932H15.9006L15.7858 26.4293C15.7594 26.2495 15.6816 26.1 15.5524 25.9852C15.4233 25.8689 15.2692 25.8107 15.0879 25.8107C14.9067 25.8107 14.7397 25.8877 14.5856 26.0418C13.0116 27.7707 11.0508 28.6348 8.70335 28.6348C7.20785 28.6348 5.98879 28.3825 5.04769 27.881C4.10431 27.3772 3.36487 26.856 2.82332 26.3145C2.07406 25.5652 1.41544 24.5274 0.84896 23.1989L0.850471 23.1981ZM6.59681 14.2795C5.73275 15.312 5.2992 16.7184 5.2992 18.4971C5.2992 20.2759 5.72595 21.6837 6.57793 22.7147C7.4284 23.7457 8.55078 24.2623 9.94431 24.2623C11.3378 24.2623 12.5108 23.754 13.3877 22.7336C14.2646 21.7147 14.7027 20.303 14.7027 18.4971C14.7027 16.6912 14.2654 15.2803 13.3877 14.2606C12.5108 13.2417 11.3613 12.7319 9.94431 12.7319C8.52737 12.7319 7.46163 13.2485 6.59681 14.2795Z" fill="black"/>
<path d="M29.9435 8.9375V28.0905H24.7969V8.9375H29.9435Z" fill="black"/>
<path d="M45.0738 28.1841C44.5323 28.3005 43.8744 28.3586 43.0995 28.3586C42.0413 28.3586 41.0496 28.2423 40.1206 28.0104C39.1915 27.777 38.3335 27.1728 37.548 26.1916C36.761 25.2105 36.3675 23.7022 36.3675 21.6636V13.1128H33.0781V8.93449H34.4717C35.2194 8.93449 35.8841 8.68902 36.4634 8.19958C37.0442 7.71015 37.3864 7.10364 37.4898 6.38082C37.696 5.27279 37.8237 4.34377 37.8773 3.59375H41.4748C41.4227 5.76147 41.3457 7.54096 41.2437 8.93449H46.0807V13.1128H41.5149V21.0843C41.5149 22.863 42.1191 23.8691 43.3336 24.1025C43.5134 24.1274 43.7838 24.1402 44.1463 24.1402C44.7906 24.1402 45.3714 24.0896 45.8873 23.9862L46.3518 27.8941C46.0414 27.9711 45.6169 28.0686 45.0746 28.1841H45.0738Z" fill="black"/>
<path d="M60.7067 28.1841C60.1651 28.3005 59.5072 28.3586 58.7323 28.3586C57.6741 28.3586 56.6824 28.2423 55.7534 28.0104C54.8244 27.777 53.9663 27.1728 53.1808 26.1916C52.3938 25.2105 52.0003 23.7022 52.0003 21.6636V13.1128H48.7109V8.93449H50.1045C50.8522 8.93449 51.5169 8.68902 52.0962 8.19958C52.677 7.71015 53.0192 7.10364 53.1227 6.38082C53.3289 5.27279 53.4565 4.34377 53.5101 3.59375H57.1076C57.0555 5.76147 56.9785 7.54096 56.8765 8.93449H61.7135V13.1128H57.1477V21.0843C57.1477 22.863 57.7519 23.8691 58.9664 24.1025C59.1462 24.1274 59.4166 24.1402 59.7791 24.1402C60.4234 24.1402 61.0042 24.0896 61.5201 23.9862L61.9846 27.8941C61.6742 27.9711 61.2497 28.0686 60.7074 28.1841H60.7067Z" fill="black"/>
<path d="M65.3153 13.2465C66.1401 11.7132 67.3086 10.5183 68.8169 9.66784C70.3267 8.81586 72.073 8.39062 74.0594 8.39062C76.0459 8.39062 77.7544 8.81586 79.2642 9.66784C80.7726 10.5183 81.9395 11.7132 82.7658 13.2465C83.5906 14.7812 84.003 16.5419 84.003 18.5283C84.003 20.5147 83.5846 22.2754 82.7469 23.8086C81.9078 25.3434 80.7348 26.5368 79.225 27.3888C77.7166 28.2392 75.9817 28.666 74.0217 28.666C72.0617 28.666 70.3267 28.2392 68.8169 27.3888C67.3086 26.5368 66.1401 25.3434 65.3153 23.8086C64.489 22.2754 64.0781 20.5147 64.0781 18.5283C64.0781 16.5419 64.489 14.7812 65.3153 13.2465ZM77.5233 22.7459C78.3609 21.7134 78.7793 20.3214 78.7793 18.5661C78.7793 16.8107 78.3609 15.381 77.5233 14.35C76.6841 13.3175 75.53 12.8008 74.0594 12.8008C72.5889 12.8008 71.4348 13.3175 70.5971 14.35C69.758 15.381 69.3388 16.7873 69.3388 18.5661C69.3388 20.3448 69.7572 21.7134 70.5971 22.7459C71.4348 23.7769 72.5889 24.2935 74.0594 24.2935C75.53 24.2935 76.6841 23.7769 77.5233 22.7459Z" fill="black"/>
<path d="M30.0625 3.96307L27.7075 5.62625C27.5081 5.76674 27.2422 5.76674 27.0436 5.62625L24.6885 3.96307C24.5359 3.85506 24.4453 3.67983 24.4453 3.49252V0.575541C24.4453 0.257558 24.7036 0 25.0216 0H29.7309C30.0489 0 30.3065 0.257558 30.3065 0.575541V3.49252C30.3065 3.67983 30.2158 3.85506 30.0633 3.96307H30.0625Z" fill="#097AE9"/>
</svg>
