<svg preserveAspectRatio="none" width="100%" height="100%" overflow="visible" style="display: block;" viewBox="0 0 15 15" fill="none" xmlns="http://www.w3.org/2000/svg">
<g id="Layer_1" clip-path="url(#clip0_0_4)">
<path id="Vector" d="M13.8574 4.86523C13.4949 3.99023 13.4574 2.85273 12.8074 2.19023C12.1449 1.52773 11.0199 1.50273 10.1324 1.12773C9.28242 0.777734 8.46992 -0.00976562 7.49492 -0.00976562C6.51992 -0.00976562 5.70742 0.777734 4.85742 1.12773C3.98242 1.49023 2.84492 1.52773 2.18242 2.19023C1.51992 2.85273 1.49492 3.97773 1.11992 4.86523C0.769922 5.71524 -0.0175781 6.52774 -0.0175781 7.50274C-0.0175781 8.47774 0.769922 9.29024 1.11992 10.1402C1.48242 11.0152 1.51992 12.1527 2.18242 12.8152C2.84492 13.4777 3.96992 13.5027 4.85742 13.8777C5.70742 14.2277 6.51992 15.0152 7.49492 15.0152C8.46992 15.0152 9.28242 14.2277 10.1324 13.8777C11.0074 13.5152 12.1449 13.4777 12.8074 12.8152C13.4699 12.1527 13.4949 11.0277 13.8574 10.1402C14.2074 9.29024 14.9949 8.47774 14.9949 7.50274C14.9949 6.52774 14.2074 5.71524 13.8574 4.86523Z" fill="var(--fill-0, #F56301)"/>
<path id="Vector_2" d="M8.30781 3.94063C8.12031 3.67813 7.82031 3.51562 7.49531 3.51562C7.17031 3.51562 6.87031 3.67813 6.68281 3.94063C5.85781 5.11562 4.83281 6.11562 3.63281 6.90312L4.47031 8.15312C5.32031 7.59062 6.05781 6.90312 6.74531 6.16562V11.1906H8.24531V6.16562C8.93281 6.90312 9.67031 7.57812 10.5203 8.15312L11.3578 6.90312C10.1578 6.10312 9.13281 5.10312 8.30781 3.94063Z" fill="var(--fill-0, white)"/>
</g>
<defs>
<clipPath id="clip0_0_4">
<rect width="15" height="15" fill="white"/>
</clipPath>
</defs>
</svg>
