<svg width="20" height="19" viewBox="0 0 20 19" fill="none" xmlns="http://www.w3.org/2000/svg">
<path d="M16.8836 7.63702H2.10742" stroke="white" stroke-width="1.46822" stroke-miterlimit="10"/>
<path d="M13.9277 2.85175C15.9651 2.85193 17.6169 4.50472 17.6172 6.54218V11.3996H16.1484V6.54218C16.1482 5.31529 15.154 4.32068 13.9277 4.3205H5.06152C3.8354 4.32082 2.84106 5.31538 2.84082 6.54218V13.4387C2.84082 14.6657 3.83525 15.66 5.06152 15.6603H10.4492V17.1291H5.06152C3.02408 17.1288 1.37207 15.4762 1.37207 13.4387V6.54218C1.37231 4.5048 3.02423 2.85207 5.06152 2.85175H13.9277Z" fill="white"/>
<path d="M6.04883 5.06733V2.11145" stroke="white" stroke-width="1.46822" stroke-miterlimit="10"/>
<path d="M12.9434 5.06733V2.11145" stroke="white" stroke-width="1.46822" stroke-miterlimit="10"/>
<path d="M12.2741 10.0785C12.6064 9.93 12.9895 9.94812 13.3062 10.1275C13.4838 10.2282 13.628 10.3972 13.7578 10.54L13.8154 10.6034C13.9011 10.6975 14.0008 10.8029 14.0684 10.9184C14.2969 11.3093 14.2737 11.7976 14.0092 12.1651C13.9518 12.2448 13.8769 12.3163 13.8043 12.3831C13.9733 12.7547 14.1997 13.1083 14.4899 13.4276C14.78 13.7465 15.1104 14.0056 15.4638 14.209C15.5373 14.143 15.6163 14.0754 15.7012 14.0257C16.0921 13.7972 16.5814 13.8204 16.9489 14.0849C17.0575 14.1631 17.1529 14.2724 17.2386 14.3665L17.2962 14.4299C17.4259 14.5725 17.5796 14.7324 17.6631 14.9185C17.8119 15.251 17.7937 15.6347 17.614 15.9515C17.5134 16.1291 17.3453 16.2734 17.2025 16.4032L17.1514 16.4507C16.9956 16.5924 16.8522 16.7277 16.6595 16.8243C16.4513 16.9284 16.1661 16.9883 15.9337 16.9766C15.7225 16.9659 15.5696 16.9108 15.4056 16.8557C14.3925 16.5154 13.4494 15.9197 12.6804 15.0741C11.9113 14.2284 11.4067 13.2332 11.1639 12.1923C11.1246 12.0238 11.0852 11.8656 11.0946 11.6543C11.105 11.4217 11.1915 11.1434 11.3149 10.9461C11.4293 10.7636 11.5776 10.6345 11.7334 10.4928L11.7845 10.4464C11.9273 10.3165 12.0877 10.162 12.2741 10.0785Z" stroke="white" stroke-width="1.045" stroke-linecap="round" stroke-linejoin="round"/>
</svg>
