<svg width="21" height="20" viewBox="0 0 21 20" fill="none" xmlns="http://www.w3.org/2000/svg">
<path d="M14.6618 3.77539H5.32952C3.61149 3.77539 2.21875 5.16843 2.21875 6.88684V14.1469C2.21875 15.8653 3.61149 17.2583 5.32952 17.2583H14.6618C16.3799 17.2583 17.7726 15.8653 17.7726 14.1469V6.88684C17.7726 5.16843 16.3799 3.77539 14.6618 3.77539Z" stroke="white" stroke-width="1.54549" stroke-miterlimit="10"/>
<path d="M17.7726 8.03906H2.21875" stroke="white" stroke-width="1.54549" stroke-miterlimit="10"/>
<path d="M6.36719 5.3341V2.22266" stroke="white" stroke-width="1.54549" stroke-miterlimit="10"/>
<path d="M13.625 5.3341V2.22266" stroke="white" stroke-width="1.54549" stroke-miterlimit="10"/>
<rect x="11" y="12" width="8" height="7" fill="#0871EA"/>
<g clip-path="url(#clip0_14776_1934)">
<path d="M12.9197 10.6095C13.2697 10.4529 13.6729 10.4721 14.0064 10.6611C14.1934 10.7671 14.3458 10.944 14.4825 11.0943L14.5428 11.1617C14.633 11.2608 14.7386 11.3715 14.8097 11.4931C15.05 11.9045 15.0257 12.4193 14.7473 12.8061C14.687 12.89 14.6075 12.965 14.5312 13.0353C14.7091 13.4264 14.9477 13.7982 15.2533 14.1343C15.5586 14.47 15.906 14.7421 16.278 14.9562C16.3551 14.887 16.4385 14.8169 16.5276 14.7647C16.9391 14.5241 17.4537 14.5486 17.8406 14.827C17.9548 14.9093 18.0551 15.024 18.1452 15.1231L18.2066 15.1895C18.3433 15.3398 18.505 15.5083 18.5928 15.7045C18.7494 16.0544 18.7303 16.4576 18.5412 16.7912C18.4352 16.9782 18.2583 17.1306 18.108 17.2673L18.0539 17.3165C17.8899 17.4656 17.7394 17.6078 17.5366 17.7094C17.3174 17.8192 17.0171 17.882 16.7723 17.8697C16.55 17.8584 16.3888 17.8015 16.2161 17.7435C15.1496 17.3854 14.1573 16.7574 13.3477 15.8672C12.5382 14.977 12.007 13.9296 11.7514 12.834C11.7101 12.6566 11.6687 12.4907 11.6786 12.2684C11.6895 12.0235 11.7804 11.7305 11.9105 11.5227L12.0068 11.3874C12.1091 11.2611 12.2277 11.1567 12.3506 11.045L12.4048 10.9957C12.5551 10.859 12.7235 10.6974 12.9197 10.6095ZM16.3988 15.0275C16.4024 15.0294 16.4046 15.0303 16.4055 15.0307C16.4043 15.0301 16.4013 15.0283 16.3969 15.0264L16.3988 15.0275Z" stroke="white" stroke-width="1.1" stroke-linecap="round" stroke-linejoin="round"/>
</g>
<defs>
<clipPath id="clip0_14776_1934">
<rect width="9.77334" height="9.77334" fill="white" transform="translate(10.4609 9) rotate(2.71705)"/>
</clipPath>
</defs>
</svg>
