<svg width="36" height="20" viewBox="0 0 36 20" fill="none" xmlns="http://www.w3.org/2000/svg">
<path d="M34.8107 4.16687V4.37785C35.1267 4.98442 35.3637 5.64373 35.5217 6.32942C35.6798 7.0151 35.7588 7.72716 35.7588 8.46559C35.7588 9.49412 35.6007 10.4963 35.2584 11.4721C34.916 12.4479 34.442 13.3445 33.8099 14.1884C33.2305 14.9532 32.5194 15.6653 31.703 16.2982C30.8866 16.9312 29.9649 17.4586 28.9641 17.8806C28.0687 18.2762 27.1206 18.5927 26.1198 18.8036C25.1191 19.0146 24.0656 19.1465 22.9859 19.1729L22.8805 18.8564C23.9339 18.6454 24.9084 18.3026 25.7775 17.8015C26.6465 17.3004 27.4103 16.6675 28.0687 15.9027C28.6744 15.1906 29.1748 14.3731 29.5698 13.45C29.9649 12.527 30.2546 11.5248 30.4389 10.4435C29.8859 10.971 29.2801 11.3666 28.5954 11.6303C27.9107 11.894 27.1733 12.0259 26.3569 12.0259C25.6194 12.0259 24.9347 11.894 24.2763 11.6303C23.6179 11.3666 23.0385 10.9974 22.5381 10.4963C22.0378 9.9952 21.6691 9.41501 21.4057 8.75569C21.1423 8.09638 21.0107 7.38432 21.0107 6.61951C21.0107 5.6701 21.195 4.77343 21.5374 3.95588C21.8798 3.13833 22.3801 2.42628 23.0385 1.81971C23.6706 1.23951 24.408 0.791176 25.2507 0.474706C26.0935 0.158235 26.9889 0 27.9107 0C28.6217 0 29.3328 0.10549 30.0175 0.290098C30.7023 0.474706 31.3343 0.738432 31.9401 1.08128C32.5458 1.45049 33.0988 1.89882 33.5729 2.42628C34.0469 2.95373 34.4683 3.53392 34.8107 4.16687ZM25.9881 2.3999L25.9091 2.37353C25.8038 2.76912 25.7248 3.19108 25.6721 3.66579C25.6194 4.14049 25.5931 4.66794 25.5931 5.22177C25.5931 5.88108 25.6721 6.51402 25.8038 7.09422C25.9355 7.67442 26.1462 8.20187 26.4095 8.6502C26.7519 9.20403 27.1733 9.62599 27.6736 9.91609C28.174 10.2062 28.7271 10.3644 29.3328 10.3644C29.5435 10.3644 29.7542 10.338 29.9385 10.3117C30.1229 10.2853 30.3072 10.2326 30.4916 10.1534C30.5443 9.78422 30.5706 9.44138 30.5969 9.09854C30.6233 8.75569 30.6233 8.43922 30.6233 8.12275C30.6233 7.5953 30.6233 7.09422 30.5969 6.61951C30.5706 6.14481 30.5443 5.6701 30.4916 5.22177C30.4126 4.66794 30.3336 4.16687 30.2282 3.69216C30.1229 3.21745 29.9912 2.79549 29.8332 2.42628C29.5962 1.81971 29.3065 1.345 28.9641 1.02853C28.6217 0.712058 28.253 0.553823 27.858 0.553823C27.4103 0.553823 27.0416 0.712058 26.7256 1.02853C26.4095 1.345 26.1725 1.79333 25.9881 2.3999Z" fill="#FF7A30"/>
<path d="M17.6745 18.2783L17.5955 18.3047C17.3584 18.0409 17.1741 17.7508 17.0424 17.4344C16.9107 17.1179 16.8581 16.7487 16.8581 16.3531C16.8581 15.9575 16.9371 15.5883 17.0687 15.2454C17.2004 14.9026 17.3848 14.6125 17.6218 14.3752C17.8852 14.1378 18.1749 13.9532 18.5172 13.8213C18.8596 13.6895 19.202 13.6104 19.5707 13.6104C19.9394 13.6104 20.2817 13.6631 20.6241 13.795C20.9665 13.9268 21.2562 14.1114 21.4932 14.3488C21.7565 14.5861 21.9672 14.8762 22.0989 15.2191C22.2306 15.5619 22.3096 15.9311 22.3096 16.3267C22.3096 16.7223 22.2569 17.0915 22.1252 17.4344C21.9936 17.7772 21.8092 18.0673 21.5459 18.3047C21.3088 18.542 21.0191 18.7266 20.6768 18.8585C20.3344 18.9904 19.992 19.0431 19.6233 19.0431C19.2546 19.0431 18.9123 18.964 18.5699 18.8321C18.2275 18.7003 17.9378 18.5156 17.6745 18.2783Z" fill="#FF7A30"/>
<path d="M7.87443 17.6703L7.76909 17.6439C7.82176 17.5384 7.87443 17.4066 7.90077 17.2483C7.9271 17.0901 7.95344 16.8528 7.95344 16.5627V12.976H0V12.7914L9.03321 0.238037H12.9836V12.2903H16.0122V12.976H12.9836V16.5627C12.9836 16.8264 12.9836 17.0374 13.0099 17.1956C13.0363 17.3538 13.0626 17.4857 13.1153 17.6176C13.1943 17.7494 13.2996 17.8549 13.4313 17.9604C13.563 18.0659 13.7473 18.145 13.9844 18.1978C14.116 18.2241 14.274 18.2505 14.4584 18.2769C14.6428 18.3032 14.8534 18.3296 15.0905 18.356V18.778H5.92557V18.356C6.1626 18.3296 6.37328 18.3032 6.55764 18.2769C6.74199 18.2505 6.9 18.2241 7.03168 18.1978C7.24237 18.1714 7.42672 18.1186 7.5584 18.0395C7.69008 17.9604 7.79542 17.8285 7.87443 17.6703ZM7.9271 2.92804L1.18511 12.2903H7.9271V2.92804Z" fill="#FF7A30"/>
</svg>
