<svg width="30" height="67" viewBox="0 0 30 67" fill="none" xmlns="http://www.w3.org/2000/svg">
<path d="M29.2265 64.7973C27.0705 64.3077 24.9596 63.6096 22.9626 62.6815C23.6047 56.9535 18.4836 53.6186 18.4836 53.6186C18.0437 56.7942 18.6799 59.1716 19.3122 60.6345C18.138 59.8499 17.0481 58.9592 16.0428 57.9819L15.9701 57.4667C15.9701 57.4667 17.3839 56.051 16.9127 52.6374C16.6436 50.6907 15.4458 48.9426 13.712 47.6762C13.3055 48.7558 12.632 51.8233 13.0247 54.4346C12.4219 53.5812 11.8681 52.6905 11.3635 51.7702C11.4793 50.966 11.7464 49.8294 12.306 48.2426C13.8062 43.9893 11.768 40.5934 11.768 40.5934C11.768 40.5934 9.23294 42.546 9.37236 47.2731C9.13869 46.5987 8.92662 45.9164 8.74007 45.2301C8.46124 44.241 8.23149 43.2401 8.04102 42.2334C13.3251 38.5189 11.764 32.7496 11.764 32.7496C11.764 32.7496 8.91091 34.4191 7.4971 38.1768C7.38517 36.7512 7.35179 35.3216 7.39892 33.8921C10.4739 32.7595 12.6673 29.804 12.6673 26.3334C12.6673 25.9008 12.632 25.4761 12.5672 25.0612C10.4445 25.7828 8.7224 27.3677 7.81324 29.399C8.03513 27.9124 8.33949 26.4357 8.72633 24.9825C12.0979 24.5008 14.7703 21.8521 15.2927 18.4896C13.388 18.8652 11.6305 19.6478 10.1107 20.7431C10.5819 19.5298 11.1121 18.3402 11.7012 17.1781C12.361 17.5301 13.115 17.7306 13.9142 17.7306C14.4994 17.7306 15.0806 17.6697 15.5774 17.4298C17.6353 16.4348 19.4163 14.553 20.3883 13.2218C20.3883 13.2218 16.6849 13.7389 12.8971 14.9935C13.6452 13.7232 14.466 12.4982 15.3555 11.3223C16.2293 11.6389 17.1345 11.8139 18.0633 11.8139C20.5139 11.8139 22.132 10.6124 23.0274 8.72078C22.8212 8.71489 22.615 8.71095 22.4069 8.71095C20.5139 8.71095 18.676 8.94888 16.9185 9.39131C17.4016 8.83483 17.8964 8.29015 18.4129 7.76317C18.5778 7.59603 18.7428 7.42889 18.9097 7.26372C22.8133 7.86542 26.1593 3.73411 27.2079 0C27.1097 0.00393271 27.0116 0.00786542 26.9114 0.0157308C22.9194 0.326415 18.1733 3.28381 18.1321 6.57353C17.9789 6.721 17.8257 6.87241 17.6745 7.02185C16.9009 7.79267 16.1626 8.59494 15.4596 9.42671C16.086 7.86935 16.4335 6.16649 16.4335 4.38497C16.4335 3.43719 16.3354 2.513 16.1508 1.62028C14.0595 2.94363 12.6673 5.27966 12.6673 7.94014C12.6673 9.31266 13.0365 10.5967 13.6805 11.7018C12.5809 13.2198 11.5893 14.8145 10.7135 16.4722C10.9256 15.3159 11.0355 14.1243 11.0355 12.9072C11.0355 10.9919 10.7626 9.13962 10.254 7.3876C8.75382 9.31069 7.85841 11.7293 7.85841 14.3583C7.85841 16.2873 8.34146 18.1023 9.18974 19.6911C8.8088 20.5917 8.45927 21.506 8.1451 22.4341C8.08226 21.6319 7.91142 20.7313 7.54226 19.813C6.26395 16.6393 4.95814 15.723 4.95814 15.723C4.426 17.182 4.13735 18.7571 4.13735 20.399C4.13735 21.7007 4.29247 22.969 4.65967 24.1547C5.19574 25.891 6.34642 26.8761 6.84518 27.0708L6.87071 27.0334C6.58205 28.3686 6.3582 29.7156 6.20308 31.0723C5.65915 28.5161 3.83691 26.477 1.47861 25.596C1.23315 26.4868 1.13105 27.4385 1.19977 28.4178C1.36079 30.7479 2.45256 32.7713 4.06273 34.1202C4.62825 34.5331 5.26054 34.7966 5.94388 34.9126C5.9105 36.6352 5.98708 38.3616 6.17951 40.0763C4.82854 37.7049 2.63125 35.8781 0 35.007C0.0471269 35.9509 0.174762 36.8377 0.38487 37.6675C1.12319 40.5541 3.25568 42.8783 6.03617 43.9421C6.32482 44.0523 6.52118 44.1309 6.52118 44.1309L6.93158 44.477C7.0219 44.8663 7.11812 45.2557 7.22219 45.643C7.53048 46.8602 7.90553 48.0361 8.33949 49.1707C6.32089 47.2869 4.38869 46.8858 1.94006 46.9369C2.19533 48.3271 2.92187 50.2915 4.94439 51.6306C7.37143 53.2371 9.23098 53.1702 10.1146 52.9913C10.8156 54.2537 11.603 55.4453 12.4729 56.5642C8.97767 55.8445 6.20308 56.7254 5.7377 57.6063C5.7377 57.6063 6.20897 58.6603 7.62277 59.6337C9.03658 60.607 11.9859 61.5037 14.5013 60.6326C14.9706 60.4694 15.3496 60.2531 15.6599 60.0112C16.6044 60.8705 17.6117 61.6629 18.676 62.3865C15.7247 62.593 13.1896 63.9714 12.2137 65.4167C12.2137 65.4167 14.0713 66.8836 17.8238 66.8836C20.9734 66.8836 22.13 65.5406 22.5541 64.5869C24.4922 65.4954 26.5697 66.2131 28.7749 66.7125L29.2206 64.7973H29.2265Z" fill="#BFBFBF"/>
</svg>
